Coordinates
version=1
nRows=13
nColumns=63
inDegrees=yes

Units are S.I. units (second, meters, Newtons, ...)
If the header above contains a line with 'inDegrees', this indicates whether rotational values are in degrees (yes) or radians (no).

endheader
time	pelvis_tilt	pelvis_list	pelvis_rotation	pelvis_tx	pelvis_ty	pelvis_tz	hip_flexion_r	hip_adduction_r	hip_rotation_r	knee_angle_r	knee_angle_r_beta	ankle_angle_r	subtalar_angle_r	mtp_angle_r	hip_flexion_l	hip_adduction_l	hip_rotation_l	knee_angle_l	knee_angle_l_beta	ankle_angle_l	subtalar_angle_l	mtp_angle_l	L5_S1_Flex_Ext	L5_S1_Lat_Bending	L5_S1_axial_rotation	L4_L5_Flex_Ext	L4_L5_Lat_Bending	L4_L5_axial_rotation	L3_L4_Flex_Ext	L3_L4_Lat_Bending	L3_L4_axial_rotation	L2_L3_Flex_Ext	L2_L3_Lat_Bending	L2_L3_axial_rotation	L1_L2_Flex_Ext	L1_L2_Lat_Bending	L1_L2_axial_rotation	L1_T12_Flex_Ext	L1_T12_Lat_Bending	L1_T12_axial_rotation	Abs_r3	Abs_r2	Abs_r1	Abs_t1	Abs_t2	neck_flexion	neck_bending	neck_rotation	arm_flex_r	arm_add_r	arm_rot_r	elbow_flex_r	pro_sup_r	wrist_flex_r	wrist_dev_r	arm_flex_l	arm_add_l	arm_rot_l	elbow_flex_l	pro_sup_l	wrist_flex_l	wrist_dev_l
2.915254	5.718403	-2.304366	91.624531	0.323216	1.075401	0.369808	-4.897761	1.622423	-13.382503	7.142504	0.124660	33.105835	16.869272	0.000000	-2.663669	-0.593214	-2.964777	10.543474	0.184018	31.277958	5.718618	0.000000	0.070608	-0.241003	-1.011053	0.131126	-0.320535	-1.074244	0.116002	-0.585976	-1.074244	0.080698	-0.585976	-0.884671	0.065566	-0.491454	-0.821481	0.040345	-0.373314	-0.758290	0.504345	-2.726279	-5.623174	0.000000	0.000000	16.801731	21.163169	-13.439097	14.226401	-10.032986	-3.409732	135.873949	71.882274	-3.226959	6.941206	20.380093	-10.575136	28.078091	98.977692	58.860740	-4.560524	8.361255
2.932203	5.865998	-2.242055	91.893482	0.322943	1.075187	0.369347	-4.924781	1.768522	-13.779188	7.389076	0.128964	33.153747	16.927202	0.000000	-2.690791	-0.807882	-3.075986	10.709246	0.186912	31.395945	6.080184	0.000000	0.071717	-0.223431	-1.064793	0.133185	-0.297164	-1.131343	0.117823	-0.543251	-1.131343	0.081965	-0.543251	-0.931694	0.066596	-0.455621	-0.865144	0.040979	-0.346095	-0.798595	0.512264	-2.527500	-5.922059	0.000000	0.000000	16.276569	21.572946	-13.626670	13.692068	-9.973123	-3.244891	137.394267	70.274162	-2.941472	7.949434	20.121550	-10.593645	27.843151	99.295869	58.598346	-4.140302	8.679477
2.949153	5.991585	-2.170798	92.169206	0.322635	1.074972	0.368904	-4.960199	1.893526	-14.176097	7.619181	0.132980	33.208269	17.016955	0.000000	-2.726012	-0.991375	-3.111609	10.841299	0.189216	31.549862	6.380079	0.000000	0.072055	-0.206986	-1.129073	0.133812	-0.275291	-1.199640	0.118378	-0.503265	-1.199640	0.082351	-0.503265	-0.987939	0.066910	-0.422085	-0.917372	0.041172	-0.320621	-0.846805	0.514678	-2.341463	-6.279564	0.000000	0.000000	15.735824	21.964567	-13.650140	13.380023	-9.930015	-3.022840	138.649492	68.849345	-2.681155	8.983879	19.886080	-10.613970	27.582863	99.561043	58.365910	-3.836559	8.732226
2.966102	6.083230	-2.089026	92.445480	0.322329	1.074783	0.368438	-5.014546	1.988991	-14.528621	7.822001	0.136520	33.253696	17.093196	0.000000	-2.774692	-1.136339	-3.116466	10.945534	0.191036	31.731509	6.658775	0.000000	0.071054	-0.194316	-1.197212	0.131955	-0.258440	-1.272038	0.116735	-0.472460	-1.272038	0.081208	-0.472460	-1.047561	0.065981	-0.396249	-0.972735	0.040600	-0.300995	-0.897909	0.507533	-2.198140	-6.658536	0.000000	0.000000	15.246270	22.334933	-13.591892	13.218987	-9.943818	-2.726978	139.626050	67.869628	-2.671045	9.822983	19.676125	-10.620189	27.311158	99.731000	58.551470	-3.593691	8.462844
2.983051	6.139150	-2.005606	92.694485	0.322070	1.074617	0.367973	-5.074199	2.049225	-14.822252	8.005039	0.139714	33.287277	17.160101	0.000000	-2.827265	-1.246358	-3.197735	11.033377	0.192569	31.942465	7.004947	0.000000	0.069270	-0.185529	-1.262911	0.128642	-0.246754	-1.341843	0.113804	-0.451096	-1.341843	0.079169	-0.451096	-1.105047	0.064324	-0.378332	-1.026115	0.039581	-0.287385	-0.947183	0.494790	-2.098746	-7.023932	0.000000	0.000000	14.851990	22.638398	-13.446065	13.167580	-9.999568	-2.393044	140.335641	67.232160	-2.779050	10.538888	19.483107	-10.618285	27.024144	99.848758	59.040461	-3.388733	8.057932
3.000000	6.160883	-1.915780	92.929176	0.321851	1.074503	0.367543	-5.147835	2.079205	-15.077050	8.160110	0.142421	33.299460	17.218555	0.000000	-2.880350	-1.332541	-3.431601	11.120779	0.194094	32.186160	7.538194	0.000000	0.065395	-0.180325	-1.330943	0.121445	-0.239833	-1.414127	0.107437	-0.438443	-1.414127	0.074740	-0.438443	-1.164575	0.060726	-0.367719	-1.081391	0.037367	-0.279324	-0.998208	0.467108	-2.039876	-7.402308	0.000000	0.000000	14.576341	22.853543	-13.172442	13.211096	-10.089175	-1.994383	140.753208	66.972233	-2.945666	11.017710	19.292558	-10.633869	26.746029	99.941738	59.693973	-3.257433	7.492789
3.016949	6.142734	-1.822896	93.131005	0.321685	1.074447	0.367136	-5.232784	2.070587	-15.293767	8.286036	0.144619	33.288733	17.265160	0.000000	-2.956187	-1.355988	-3.500498	11.161526	0.194805	32.331166	7.775125	0.000000	0.059990	-0.179390	-1.395647	0.111407	-0.238589	-1.482875	0.098558	-0.436170	-1.482875	0.068563	-0.436170	-1.221191	0.055707	-0.365813	-1.133963	0.034278	-0.277876	-1.046735	0.428502	-2.029300	-7.762168	0.000000	0.000000	14.439350	22.963773	-12.798904	13.323204	-10.191107	-1.557797	140.895461	67.037977	-3.128758	11.227938	19.100962	-10.682653	26.506617	100.039783	60.484009	-3.204509	6.846013
3.033898	6.096431	-1.745292	93.334804	0.321546	1.074421	0.366793	-5.310315	2.038101	-15.526503	8.381339	0.146282	33.258107	17.312660	0.000000	-3.009291	-1.348666	-3.546567	11.204646	0.195558	32.425751	7.962346	0.000000	0.055513	-0.181974	-1.461171	0.103093	-0.242025	-1.552494	0.091202	-0.442451	-1.552494	0.063446	-0.442451	-1.278524	0.051549	-0.371081	-1.187201	0.031720	-0.281878	-1.095878	0.396524	-2.058525	-8.126594	0.000000	0.000000	14.468705	22.951674	-12.392085	13.495653	-10.281559	-1.116966	140.810055	67.207572	-3.240555	11.325915	18.901776	-10.739113	26.256400	100.150931	61.331990	-3.127481	6.349247
3.050847	6.012502	-1.668165	93.491120	0.321498	1.074467	0.366533	-5.393553	1.968141	-15.717296	8.440584	0.147316	33.206773	17.345426	0.000000	-3.079701	-1.283130	-3.435409	11.206247	0.195586	32.388706	7.857020	0.000000	0.049954	-0.188995	-1.521058	0.092770	-0.251363	-1.616124	0.082070	-0.459523	-1.616124	0.057093	-0.459523	-1.330926	0.046388	-0.385399	-1.235860	0.028544	-0.292753	-1.140793	0.356820	-2.137950	-8.459667	0.000000	0.000000	14.625295	22.820699	-11.926839	13.747518	-10.336348	-0.644098	140.480766	67.634058	-3.302092	11.162985	18.707509	-10.822209	26.016987	100.261304	62.259435	-3.128509	5.889081
3.067797	5.921293	-1.613147	93.640802	0.321453	1.074547	0.366326	-5.455454	1.891989	-15.926668	8.482807	0.148053	33.142478	17.369805	0.000000	-3.133660	-1.195560	-3.185870	11.183565	0.195190	32.254791	7.554270	0.000000	0.046632	-0.196910	-1.578038	0.086600	-0.261890	-1.676666	0.076612	-0.478766	-1.676666	0.053296	-0.478766	-1.380783	0.043302	-0.401538	-1.282156	0.026645	-0.305013	-1.183529	0.333087	-2.227481	-8.776575	0.000000	0.000000	14.906533	22.577671	-11.417211	14.037927	-10.351926	-0.210874	140.003273	68.155534	-3.257060	10.881125	18.511896	-10.885767	25.777849	100.352137	63.126251	-3.190695	5.497854
3.084746	5.813185	-1.562263	93.760634	0.321455	1.074700	0.366173	-5.520224	1.799858	-16.131649	8.494319	0.148254	33.070652	17.402045	0.000000	-3.193818	-1.076039	-2.813109	11.129461	0.194246	32.039080	7.065284	0.000000	0.042893	-0.207130	-1.628198	0.079656	-0.275483	-1.729961	0.070469	-0.503617	-1.729961	0.049022	-0.503617	-1.424674	0.039830	-0.422380	-1.322911	0.024509	-0.320845	-1.221149	0.306379	-2.343100	-9.055551	0.000000	0.000000	15.256787	22.226234	-10.884350	14.353067	-10.309116	0.187575	139.410915	68.796437	-3.116525	10.434577	18.346538	-10.944717	25.548502	100.402538	63.912895	-3.321005	5.153475
3.101695	5.704250	-1.519824	93.833473	0.321498	1.074919	0.366071	-5.580187	1.705682	-16.299046	8.479305	0.147992	32.993646	17.434559	0.000000	-3.256178	-0.940132	-2.352511	11.040387	0.192691	31.771228	6.436851	0.000000	0.039843	-0.217166	-1.667203	0.073993	-0.288831	-1.771404	0.065458	-0.528018	-1.771404	0.045537	-0.528018	-1.458803	0.036998	-0.442845	-1.354603	0.022766	-0.336390	-1.250403	0.284595	-2.456627	-9.272485	0.000000	0.000000	15.621190	21.753052	-10.316703	14.670429	-10.228433	0.543239	138.769111	69.623400	-2.950412	9.884207	18.230918	-10.991683	25.349625	100.375620	64.570295	-3.512565	4.763886
3.118644	5.589167	-1.484415	93.864707	0.321567	1.075191	0.366013	-5.634595	1.603885	-16.419508	8.448228	0.147449	32.931479	17.458094	0.000000	-3.321845	-0.781971	-1.796852	10.916396	0.190527	31.475519	5.688764	0.000000	0.037036	-0.228357	-1.692547	0.068779	-0.303715	-1.798331	0.060846	-0.555228	-1.798331	0.042328	-0.555228	-1.480978	0.034392	-0.465666	-1.375194	0.021162	-0.353725	-1.269410	0.264544	-2.583223	-9.413438	0.000000	0.000000	15.996837	21.221289	-9.774498	14.940901	-10.132518	0.837247	138.122329	70.584854	-2.766712	9.174677	18.182533	-11.012917	25.182980	100.273319	65.095515	-3.785373	4.400658
